<?xml version="1.0" standalone="no"?>
<!DOCTYPE svg PUBLIC "-//W3C//DTD SVG 20010904//EN"
 "http://www.w3.org/TR/2001/REC-SVG-20010904/DTD/svg10.dtd">
<svg version="1.0" xmlns="http://www.w3.org/2000/svg"
 width="144.000000pt" height="144.000000pt" viewBox="0 0 144.000000 144.000000"
 preserveAspectRatio="xMidYMid meet">

<g transform="translate(0.000000,144.000000) scale(0.100000,-0.100000)"
fill="#FFFFFF" stroke="none">
<path d="M161 988 l1 -213 37 180 c21 99 40 195 44 213 l7 32 -45 0 -45 0 1
-212z"/>
<path d="M510 1197 c0 -1 43 -216 95 -477 52 -261 95 -476 95 -477 0 -2 18 -3
40 -3 l40 0 0 217 c0 209 -1 218 -22 240 l-21 23 21 23 c21 22 22 31 22 240
l0 217 -135 0 c-74 0 -135 -1 -135 -3z"/>
<path d="M980 1198 c0 -2 41 -106 90 -233 l89 -230 1 233 0 232 -90 0 c-49 0
-90 -1 -90 -2z"/>
<path d="M356 778 c-9 -51 -20 -103 -23 -115 -5 -22 -2 -23 47 -23 44 0 51 2
46 18 -3 9 -12 58 -22 107 -9 50 -20 93 -23 98 -4 4 -15 -35 -25 -85z"/>
<path d="M961 478 l-1 -238 90 0 c50 0 90 3 90 8 0 6 -144 383 -170 447 -5 12
-9 -80 -9 -217z"/>
<path d="M290 446 c0 -2 -9 -48 -20 -101 -11 -53 -20 -99 -20 -101 0 -2 59 -4
131 -4 119 0 130 1 125 18 -3 9 -12 56 -22 105 l-17 87 -88 0 c-49 0 -89 -2
-89 -4z"/>
</g>
</svg>
